<svg width="24" height="24" viewBox="0 0 24 24" fill="none" xmlns="http://www.w3.org/2000/svg">
<circle cx="12" cy="12" r="4" fill="url(#paint0_linear_82_271)"/>
<g filter="url(#filter0_b_82_271)">
<path d="M19.4829 9.3891L14.6864 8.69086L12.5422 4.33683C12.4837 4.21761 12.3873 4.12111 12.2683 4.06245C11.9698 3.91486 11.6071 4.03785 11.4579 4.33683L9.3137 8.69086L4.51721 9.3891C4.38497 9.40802 4.26407 9.47046 4.1715 9.56507C4.05959 9.68029 3.99793 9.83529 4.00005 9.99602C4.00218 10.1567 4.06792 10.3101 4.18284 10.4223L7.65316 13.8113L6.83328 18.5967C6.81405 18.708 6.82635 18.8225 6.86878 18.9272C6.91121 19.0319 6.98207 19.1226 7.07333 19.1889C7.16459 19.2553 7.27259 19.2948 7.38509 19.3028C7.4976 19.3109 7.6101 19.2872 7.70983 19.2344L12 16.9751L16.2902 19.2344C16.4074 19.2968 16.5434 19.3177 16.6737 19.295C17.0024 19.2382 17.2235 18.926 17.1668 18.5967L16.3469 13.8113L19.8172 10.4223C19.9117 10.3295 19.974 10.2084 19.9929 10.076C20.0439 9.74484 19.8135 9.43829 19.4829 9.3891Z" fill="url(#paint1_linear_82_271)"/>
<path d="M14.2378 8.91176L14.354 9.14775L14.6143 9.18565L19.4093 9.88365C19.4094 9.88367 19.4096 9.8837 19.4098 9.88372C19.4711 9.89311 19.5068 9.94785 19.4988 9.99986L19.4987 9.99985L19.4979 10.0054C19.4949 10.027 19.4846 10.048 19.4673 10.0652C19.4672 10.0652 19.4671 10.0653 19.467 10.0654L15.9976 13.4535L15.8098 13.6369L15.8541 13.8957L16.674 18.6812L16.674 18.6815C16.6838 18.7382 16.6459 18.7924 16.5886 18.8022L16.5879 18.8024C16.565 18.8064 16.5422 18.8021 16.5255 18.7932L16.5232 18.792L12.233 16.5327L12 16.41L11.7671 16.5327L7.47685 18.792L7.47608 18.7924C7.45903 18.8014 7.43985 18.8055 7.42071 18.8041C7.40158 18.8027 7.38313 18.796 7.36747 18.7846C7.35181 18.7732 7.33954 18.7576 7.33216 18.7394C7.32478 18.7212 7.32263 18.7012 7.32599 18.6818L7.3261 18.6812L8.14598 13.8957L8.19031 13.6369L8.0025 13.4535L4.53217 10.0645L4.53214 10.0645C4.51204 10.0449 4.50039 10.0179 4.50001 9.98941C4.49964 9.96123 4.51034 9.9342 4.52954 9.91409C4.5466 9.89693 4.56715 9.88704 4.58804 9.88406L4.58924 9.88388L9.38573 9.18565L9.64604 9.14775L9.76226 8.91176L11.9056 4.5594C11.933 4.50546 11.9972 4.4862 12.0467 4.51065L12.0472 4.51094C12.0672 4.52075 12.0835 4.53702 12.0934 4.55729L12.0937 4.55772L14.2378 8.91176Z" stroke="url(#paint2_linear_82_271)"/>
</g>
<defs>
<filter id="filter0_b_82_271" x="-0.81" y="-0.81" width="25.62" height="24.9243" filterUnits="userSpaceOnUse" color-interpolation-filters="sRGB">
<feFlood flood-opacity="0" result="BackgroundImageFix"/>
<feGaussianBlur in="BackgroundImageFix" stdDeviation="2.405"/>
<feComposite in2="SourceAlpha" operator="in" result="effect1_backgroundBlur_82_271"/>
<feBlend mode="normal" in="SourceGraphic" in2="effect1_backgroundBlur_82_271" result="shape"/>
</filter>
<linearGradient id="paint0_linear_82_271" x1="7.68182" y1="16.4848" x2="17.5163" y2="11.0436" gradientUnits="userSpaceOnUse">
<stop stop-color="#F3BE00"/>
<stop offset="1" stop-color="#FBEC65"/>
</linearGradient>
<linearGradient id="paint1_linear_82_271" x1="3.36364" y1="20.2319" x2="22.6132" y2="9.09742" gradientUnits="userSpaceOnUse">
<stop stop-color="#F3BE00"/>
<stop offset="1" stop-color="#FBEC65"/>
</linearGradient>
<linearGradient id="paint2_linear_82_271" x1="6.54694" y1="5.78298" x2="16.2094" y2="18.2941" gradientUnits="userSpaceOnUse">
<stop stop-color="white" stop-opacity="0.25"/>
<stop offset="1" stop-color="white" stop-opacity="0"/>
</linearGradient>
</defs>
</svg>
